<svg width="408" height="100" viewBox="0 0 408 100" fill="none" xmlns="http://www.w3.org/2000/svg">
<rect width="408" height="100" fill="white"/>
<g clip-path="url(#clip0_0_1)">
<path d="M77.34 53.15L73.65 74H70.23L72.75 59.72L63.87 74H61.5L57.63 59.72L55.11 74H51.69L55.38 53.15H59.07L63.51 69.5L73.68 53.15H77.34ZM85.5251 74.27C84.1251 74.27 82.8951 73.98 81.8351 73.4C80.7751 72.82 79.9451 72 79.3451 70.94C78.7651 69.88 78.4751 68.67 78.4751 67.31C78.4751 65.45 78.9051 63.75 79.7651 62.21C80.6451 60.67 81.8451 59.45 83.3651 58.55C84.9051 57.65 86.6151 57.2 88.4951 57.2C89.8951 57.2 91.1351 57.5 92.2151 58.1C93.2951 58.68 94.1351 59.5 94.7351 60.56C95.3551 61.6 95.6651 62.81 95.6651 64.19C95.6651 66.05 95.2151 67.75 94.3151 69.29C93.4151 70.83 92.1951 72.05 90.6551 72.95C89.1151 73.83 87.4051 74.27 85.5251 74.27ZM85.9451 71.39C87.0851 71.39 88.1251 71.07 89.0651 70.43C90.0251 69.77 90.7751 68.91 91.3151 67.85C91.8551 66.77 92.1251 65.62 92.1251 64.4C92.1251 63.02 91.7351 61.96 90.9551 61.22C90.1751 60.46 89.1951 60.08 88.0151 60.08C86.8551 60.08 85.8151 60.41 84.8951 61.07C83.9951 61.71 83.2851 62.58 82.7651 63.68C82.2651 64.76 82.0151 65.92 82.0151 67.16C82.0151 68.5 82.3751 69.54 83.0951 70.28C83.8351 71.02 84.7851 71.39 85.9451 71.39ZM108.886 57.2C110.626 57.2 112.006 57.67 113.026 58.61C114.066 59.53 114.586 60.86 114.586 62.6C114.586 63.04 114.536 63.59 114.436 64.25L112.696 74H109.306L110.956 64.76C111.036 64.2 111.076 63.8 111.076 63.56C111.076 62.46 110.766 61.62 110.146 61.04C109.546 60.46 108.706 60.17 107.626 60.17C106.326 60.17 105.226 60.57 104.326 61.37C103.446 62.15 102.886 63.28 102.646 64.76V64.67L100.996 74H97.5759L100.486 57.47H103.906L103.576 59.39C104.256 58.71 105.056 58.18 105.976 57.8C106.916 57.4 107.886 57.2 108.886 57.2ZM117.538 65.66C117.838 64 118.438 62.53 119.338 61.25C120.258 59.97 121.378 58.98 122.698 58.28C124.018 57.56 125.408 57.2 126.868 57.2C127.948 57.2 128.968 57.44 129.928 57.92C130.888 58.38 131.618 59 132.118 59.78L133.528 51.8H136.978L133.048 74H129.598L130.048 71.51C129.328 72.33 128.428 73 127.348 73.52C126.288 74.02 125.118 74.27 123.838 74.27C122.578 74.27 121.458 73.99 120.478 73.43C119.498 72.87 118.728 72.08 118.168 71.06C117.628 70.02 117.358 68.83 117.358 67.49C117.358 66.89 117.418 66.28 117.538 65.66ZM131.068 65.72C131.148 65.34 131.188 64.93 131.188 64.49C131.188 63.15 130.788 62.1 129.988 61.34C129.208 60.56 128.228 60.17 127.048 60.17C126.168 60.17 125.308 60.39 124.468 60.83C123.628 61.25 122.898 61.88 122.278 62.72C121.658 63.54 121.248 64.52 121.048 65.66C120.968 66.04 120.928 66.45 120.928 66.89C120.928 68.25 121.318 69.33 122.098 70.13C122.898 70.91 123.888 71.3 125.068 71.3C125.948 71.3 126.808 71.08 127.648 70.64C128.488 70.2 129.218 69.56 129.838 68.72C130.458 67.86 130.868 66.86 131.068 65.72ZM138.02 65.66C138.32 64 138.92 62.53 139.82 61.25C140.74 59.97 141.86 58.98 143.18 58.28C144.5 57.56 145.88 57.2 147.32 57.2C148.62 57.2 149.71 57.46 150.59 57.98C151.47 58.48 152.13 59.11 152.57 59.87L152.99 57.47H156.44L153.53 74H150.08L150.53 71.54C149.81 72.32 148.9 72.97 147.8 73.49C146.72 74.01 145.54 74.27 144.26 74.27C143.02 74.27 141.91 73.99 140.93 73.43C139.97 72.87 139.21 72.08 138.65 71.06C138.11 70.02 137.84 68.83 137.84 67.49C137.84 66.89 137.9 66.28 138.02 65.66ZM151.55 65.72C151.63 65.34 151.67 64.93 151.67 64.49C151.67 63.15 151.27 62.1 150.47 61.34C149.69 60.56 148.71 60.17 147.53 60.17C146.65 60.17 145.79 60.39 144.95 60.83C144.11 61.25 143.38 61.88 142.76 62.72C142.14 63.54 141.73 64.52 141.53 65.66C141.45 66.04 141.41 66.45 141.41 66.89C141.41 68.25 141.8 69.33 142.58 70.13C143.38 70.91 144.37 71.3 145.55 71.3C146.43 71.3 147.29 71.08 148.13 70.64C148.97 70.2 149.7 69.56 150.32 68.72C150.94 67.86 151.35 66.86 151.55 65.72ZM162.942 57.47L165.372 70.07L172.422 57.47H175.962L161.562 81.77H158.022L162.792 73.73L159.132 57.47H162.942ZM210.578 53.15L206.888 74H203.468L205.988 59.72L197.108 74H194.738L190.868 59.72L188.348 74H184.928L188.618 53.15H192.308L196.748 69.5L206.918 53.15H210.578ZM211.863 65.66C212.163 64 212.763 62.53 213.663 61.25C214.583 59.97 215.703 58.98 217.023 58.28C218.343 57.56 219.723 57.2 221.163 57.2C222.463 57.2 223.553 57.46 224.433 57.98C225.313 58.48 225.973 59.11 226.413 59.87L226.833 57.47H230.283L227.373 74H223.923L224.373 71.54C223.653 72.32 222.743 72.97 221.643 73.49C220.563 74.01 219.383 74.27 218.103 74.27C216.863 74.27 215.753 73.99 214.773 73.43C213.813 72.87 213.053 72.08 212.493 71.06C211.953 70.02 211.683 68.83 211.683 67.49C211.683 66.89 211.743 66.28 211.863 65.66ZM225.393 65.72C225.473 65.34 225.513 64.93 225.513 64.49C225.513 63.15 225.113 62.1 224.313 61.34C223.533 60.56 222.553 60.17 221.373 60.17C220.493 60.17 219.633 60.39 218.793 60.83C217.953 61.25 217.223 61.88 216.603 62.72C215.983 63.54 215.573 64.52 215.373 65.66C215.293 66.04 215.253 66.45 215.253 66.89C215.253 68.25 215.643 69.33 216.423 70.13C217.223 70.91 218.213 71.3 219.393 71.3C220.273 71.3 221.133 71.08 221.973 70.64C222.813 70.2 223.543 69.56 224.163 68.72C224.783 67.86 225.193 66.86 225.393 65.72ZM237.835 60.38C238.515 59.38 239.315 58.6 240.235 58.04C241.175 57.48 242.215 57.2 243.355 57.2L242.725 60.74H241.855C240.535 60.74 239.475 61.07 238.675 61.73C237.875 62.39 237.315 63.53 236.995 65.15L235.435 74H232.015L234.925 57.47H238.345L237.835 60.38ZM251.658 65.75L257.838 74H253.218L248.358 66.89L247.098 74H243.678L247.608 51.8H251.028L248.748 64.67L256.008 57.47H260.748L251.658 65.75ZM270.52 57.2C272.58 57.2 274.22 57.78 275.44 58.94C276.68 60.1 277.3 61.66 277.3 63.62C277.3 64.08 277.25 64.63 277.15 65.27C277.07 65.71 276.93 66.25 276.73 66.89H264.1C264.08 67.03 264.07 67.24 264.07 67.52C264.07 68.7 264.43 69.64 265.15 70.34C265.89 71.04 266.85 71.39 268.03 71.39C269.89 71.39 271.32 70.62 272.32 69.08H276.01C275.25 70.6 274.13 71.85 272.65 72.83C271.17 73.79 269.46 74.27 267.52 74.27C266.14 74.27 264.93 74 263.89 73.46C262.85 72.92 262.04 72.15 261.46 71.15C260.88 70.13 260.59 68.94 260.59 67.58C260.59 67 260.65 66.38 260.77 65.72C261.07 64.02 261.68 62.53 262.6 61.25C263.52 59.95 264.66 58.95 266.02 58.25C267.4 57.55 268.9 57.2 270.52 57.2ZM273.73 64.43C273.77 64.07 273.79 63.81 273.79 63.65C273.79 62.55 273.42 61.68 272.68 61.04C271.96 60.4 271.02 60.08 269.86 60.08C268.64 60.08 267.54 60.47 266.56 61.25C265.58 62.03 264.91 63.09 264.55 64.43H273.73ZM283.905 69.41C283.865 69.69 283.845 69.87 283.845 69.95C283.845 70.37 283.975 70.68 284.235 70.88C284.495 71.06 284.925 71.15 285.525 71.15H287.625L287.115 74H284.415C283.095 74 282.085 73.74 281.385 73.22C280.685 72.68 280.335 71.83 280.335 70.67C280.335 70.23 280.375 69.81 280.455 69.41L282.075 60.26H280.125L280.605 57.47H282.585L283.305 53.36H286.755L286.035 57.47H290.025L289.545 60.26H285.525L283.905 69.41ZM307.121 74.21C305.841 74.21 304.691 74.01 303.671 73.61C302.651 73.19 301.841 72.59 301.241 71.81C300.641 71.01 300.341 70.07 300.341 68.99C300.341 68.85 300.361 68.6 300.401 68.24H303.791C303.711 69.16 303.981 69.93 304.601 70.55C305.221 71.15 306.111 71.45 307.271 71.45C308.511 71.45 309.481 71.2 310.181 70.7C310.881 70.18 311.231 69.44 311.231 68.48C311.231 67.9 311.051 67.41 310.691 67.01C310.351 66.59 309.911 66.24 309.371 65.96C308.851 65.68 308.121 65.35 307.181 64.97C305.941 64.45 304.951 63.98 304.211 63.56C303.471 63.14 302.831 62.56 302.291 61.82C301.771 61.08 301.511 60.15 301.511 59.03C301.511 57.79 301.831 56.71 302.471 55.79C303.111 54.85 303.991 54.13 305.111 53.63C306.251 53.13 307.531 52.88 308.951 52.88C310.371 52.88 311.591 53.12 312.611 53.6C313.651 54.06 314.431 54.72 314.951 55.58C315.491 56.42 315.731 57.41 315.671 58.55H312.071C312.151 57.73 311.901 57.05 311.321 56.51C310.741 55.95 309.901 55.67 308.801 55.67C307.641 55.67 306.711 55.94 306.011 56.48C305.331 57 304.991 57.71 304.991 58.61C304.991 59.17 305.161 59.66 305.501 60.08C305.861 60.48 306.311 60.83 306.851 61.13C307.391 61.41 308.121 61.75 309.041 62.15C310.281 62.71 311.271 63.21 312.011 63.65C312.771 64.09 313.421 64.69 313.961 65.45C314.501 66.19 314.771 67.11 314.771 68.21C314.771 69.37 314.451 70.41 313.811 71.33C313.171 72.23 312.271 72.94 311.111 73.46C309.951 73.96 308.621 74.21 307.121 74.21ZM318 65.72C318.3 64.02 318.9 62.53 319.8 61.25C320.72 59.95 321.85 58.95 323.19 58.25C324.55 57.55 326.02 57.2 327.6 57.2C329.6 57.2 331.17 57.68 332.31 58.64C333.45 59.58 334.1 60.93 334.26 62.69H330.57C330.41 61.87 330.04 61.23 329.46 60.77C328.88 60.31 328.09 60.08 327.09 60.08C325.69 60.08 324.49 60.58 323.49 61.58C322.49 62.56 321.83 63.94 321.51 65.72C321.41 66.36 321.36 66.88 321.36 67.28C321.36 68.6 321.69 69.62 322.35 70.34C323.01 71.04 323.93 71.39 325.11 71.39C327.09 71.39 328.55 70.52 329.49 68.78H333.18C332.4 70.46 331.26 71.8 329.76 72.8C328.28 73.78 326.56 74.27 324.6 74.27C322.52 74.27 320.87 73.68 319.65 72.5C318.43 71.3 317.82 69.68 317.82 67.64C317.82 67.02 317.88 66.38 318 65.72ZM347.329 57.2C348.989 57.2 350.319 57.67 351.319 58.61C352.319 59.53 352.819 60.85 352.819 62.57C352.819 63.03 352.769 63.59 352.669 64.25L350.929 74H347.539L349.189 64.76C349.269 64.2 349.309 63.8 349.309 63.56C349.309 62.46 348.999 61.62 348.379 61.04C347.779 60.46 346.939 60.17 345.859 60.17C344.559 60.17 343.459 60.57 342.559 61.37C341.679 62.15 341.119 63.28 340.879 64.76V64.7L339.229 74H335.809L339.739 51.8H343.159L341.809 59.39C342.509 58.69 343.339 58.15 344.299 57.77C345.259 57.39 346.269 57.2 347.329 57.2ZM362.671 74.27C361.271 74.27 360.041 73.98 358.981 73.4C357.921 72.82 357.091 72 356.491 70.94C355.911 69.88 355.621 68.67 355.621 67.31C355.621 65.45 356.051 63.75 356.911 62.21C357.791 60.67 358.991 59.45 360.511 58.55C362.051 57.65 363.761 57.2 365.641 57.2C367.041 57.2 368.281 57.5 369.361 58.1C370.441 58.68 371.281 59.5 371.881 60.56C372.501 61.6 372.811 62.81 372.811 64.19C372.811 66.05 372.361 67.75 371.461 69.29C370.561 70.83 369.341 72.05 367.801 72.95C366.261 73.83 364.551 74.27 362.671 74.27ZM363.091 71.39C364.231 71.39 365.271 71.07 366.211 70.43C367.171 69.77 367.921 68.91 368.461 67.85C369.001 66.77 369.271 65.62 369.271 64.4C369.271 63.02 368.881 61.96 368.101 61.22C367.321 60.46 366.341 60.08 365.161 60.08C364.001 60.08 362.961 60.41 362.041 61.07C361.141 61.71 360.431 62.58 359.911 63.68C359.411 64.76 359.161 65.92 359.161 67.16C359.161 68.5 359.521 69.54 360.241 70.28C360.981 71.02 361.931 71.39 363.091 71.39ZM381.952 74.27C380.552 74.27 379.322 73.98 378.262 73.4C377.202 72.82 376.372 72 375.772 70.94C375.192 69.88 374.902 68.67 374.902 67.31C374.902 65.45 375.332 63.75 376.192 62.21C377.072 60.67 378.272 59.45 379.792 58.55C381.332 57.65 383.042 57.2 384.922 57.2C386.322 57.2 387.562 57.5 388.642 58.1C389.722 58.68 390.562 59.5 391.162 60.56C391.782 61.6 392.092 62.81 392.092 64.19C392.092 66.05 391.642 67.75 390.742 69.29C389.842 70.83 388.622 72.05 387.082 72.95C385.542 73.83 383.832 74.27 381.952 74.27ZM382.372 71.39C383.512 71.39 384.552 71.07 385.492 70.43C386.452 69.77 387.202 68.91 387.742 67.85C388.282 66.77 388.552 65.62 388.552 64.4C388.552 63.02 388.162 61.96 387.382 61.22C386.602 60.46 385.622 60.08 384.442 60.08C383.282 60.08 382.242 60.41 381.322 61.07C380.422 61.71 379.712 62.58 379.192 63.68C378.692 64.76 378.442 65.92 378.442 67.16C378.442 68.5 378.802 69.54 379.522 70.28C380.262 71.02 381.212 71.39 382.372 71.39ZM401.353 51.8L397.423 74H394.003L397.933 51.8H401.353Z" fill="#212529"/>
<path d="M12.8683 81.1333V54.8667C11.0948 53.8 9.21325 53 7.22354 52.4667C5.23382 51.9333 3.22248 51.6667 1.1895 51.6667C-0.367665 51.6667 -1.91402 51.8222 -3.44956 52.1333C-4.9851 52.4444 -6.46658 52.9111 -7.89398 53.5333V79.9333C-6.38007 79.4 -4.87697 79 -3.38468 78.7333C-1.89239 78.4667 -0.367665 78.3333 1.1895 78.3333C3.22248 78.3333 5.20138 78.5667 7.12621 79.0333C9.05105 79.5 10.9651 80.2 12.8683 81.1333ZM15.4636 89C13.3873 87.3111 11.1381 86 8.71582 85.0667C6.29356 84.1333 3.78479 83.6667 1.1895 83.6667C-0.627193 83.6667 -2.41145 83.9111 -4.16327 84.4C-5.91508 84.8889 -7.5912 85.5778 -9.19162 86.4667C-10.1 86.9556 -10.9759 86.9333 -11.8193 86.4C-12.6628 85.8667 -13.0845 85.0889 -13.0845 84.0667V51.9333C-13.0845 51.4444 -12.9656 50.9778 -12.7277 50.5333C-12.4898 50.0889 -12.1329 49.7556 -11.6571 49.5333C-9.66743 48.4667 -7.5912 47.6667 -5.42847 47.1333C-3.26573 46.6 -1.05974 46.3333 1.1895 46.3333C4.39035 46.3333 7.1154 46.7111 9.36465 47.4667C11.6139 48.2222 14.0362 49.3778 16.6314 50.9333C17.1072 51.2 17.4641 51.5111 17.702 51.8667C17.9399 52.2222 18.0588 52.6889 18.0588 53.2667V81.1333C19.962 80.2 21.8761 79.5 23.8009 79.0333C25.7257 78.5667 27.7046 78.3333 29.7376 78.3333C31.2948 78.3333 32.8195 78.4667 34.3118 78.7333C35.8041 79 37.3072 79.4 38.8211 79.9333V47.8667C39.4699 48.0889 40.1079 48.3333 40.7351 48.6C41.3623 48.8667 41.9787 49.1778 42.5843 49.5333C43.0601 49.7556 43.4169 50.0889 43.6548 50.5333C43.8927 50.9778 44.0117 51.4444 44.0117 51.9333V84.0667C44.0117 85.0889 43.5899 85.8667 42.7465 86.4C41.903 86.9333 41.0271 86.9556 40.1187 86.4667C38.5183 85.5778 36.8422 84.8889 35.0904 84.4C33.3386 83.9111 31.5543 83.6667 29.7376 83.6667C27.1423 83.6667 24.6336 84.1333 22.2113 85.0667C19.789 86 17.5398 87.3111 15.4636 89ZM24.547 73V43.6667L32.3329 41V70.3333L24.547 73Z" fill="#1E88E5"/>
</g>
<defs>
<clipPath id="clip0_0_1">
<rect width="408" height="100" fill="white"/>
</clipPath>
</defs>
</svg>
